<svg xmlns="http://www.w3.org/2000/svg" style="display:none">
  <!-- Threads Icon -->
  <symbol id="icon-threads" viewBox="0 0 24 24">
    <path fill="currentColor" d="M12.186 24h-.007c-3.581-.024-6.334-1.205-8.184-3.509C2.35 18.44 1.5 15.586 1.472 12.01v-.017c.03-3.579.879-6.43 2.525-8.482C5.845 1.205 8.6.024 12.18 0h.014c2.746.02 5.043.725 6.826 2.098 1.677 1.29 2.858 3.13 3.509 5.467l-2.04.569c-1.104-3.96-3.898-5.984-8.304-6.015-2.91.022-5.11.936-6.54 2.717C4.307 6.504 3.616 8.914 3.59 12c.025 3.086.718 5.496 2.057 7.164 1.43 1.783 3.631 2.698 6.54 2.717 2.623-.02 4.358-.631 5.8-2.045 1.647-1.613 1.618-3.593 1.09-4.798-.31-.71-.873-1.3-1.634-1.75-.192 1.352-.622 2.446-1.284 3.272-.886 1.102-2.14 1.704-3.73 1.79-1.202.065-2.361-.218-3.259-.801-1.063-.689-1.685-1.74-1.752-2.96-.065-1.182.408-2.256 1.33-3.022.812-.675 1.926-1.068 3.233-1.14.95-.053 1.86.026 2.721.236-.02-.943-.17-1.66-.467-2.2-.39-.71-1.027-1.074-1.94-1.113-1.376.01-2.134.538-2.385 1.66l-2.007-.455c.453-2.004 2.039-3.153 4.353-3.153h.048c1.476.044 2.63.593 3.432 1.632.67.867 1.017 2.017 1.033 3.425 1.234.522 2.217 1.24 2.934 2.142 1.074 1.353 1.512 3.062 1.268 4.946-.326 2.52-1.55 4.479-3.54 5.667-1.678 1.001-3.81 1.527-6.337 1.562h-.028zm1.312-7.883c-.064 0-.128.002-.19.004-.996.055-1.77.313-2.305.77-.415.354-.608.778-.573 1.26.048.663.382 1.142.994 1.428.537.25 1.2.361 1.92.323 1.07-.058 1.88-.455 2.41-1.18.46-.63.737-1.516.824-2.636-.97-.243-2-.353-3.08-.303z"/>
  </symbol>
  
  <!-- Instagram Icon -->
  <symbol id="icon-instagram" viewBox="0 0 24 24">
    <path fill="currentColor" d="M12 2.163c3.204 0 3.584.012 4.85.07 3.252.148 4.771 1.691 4.919 4.919.058 1.265.069 1.645.069 4.849 0 3.205-.012 3.584-.069 4.849-.149 3.225-1.664 4.771-4.919 4.919-1.266.058-1.644.07-4.85.07-3.204 0-3.584-.012-4.849-.07-3.26-.149-4.771-1.699-4.919-4.92-.058-1.265-.07-1.644-.07-4.849 0-3.204.013-3.583.07-4.849.149-3.227 1.664-4.771 4.919-4.919 1.266-.057 1.645-.069 4.849-.069zm0-2.163c-3.259 0-3.667.014-4.947.072-4.358.2-6.78 2.618-6.98 6.98-.059 1.281-.073 1.689-.073 4.948 0 3.259.014 3.668.072 4.948.2 4.358 2.618 6.78 6.98 6.98 1.281.058 1.689.072 4.948.072 3.259 0 3.668-.014 4.948-.072 4.354-.2 6.782-2.618 6.979-6.98.059-1.28.073-1.689.073-4.948 0-3.259-.014-3.667-.072-4.947-.196-4.354-2.617-6.78-6.979-6.98-1.281-.059-1.69-.073-4.949-.073zm0 5.838c-3.403 0-6.162 2.759-6.162 6.162s2.759 6.163 6.162 6.163 6.162-2.759 6.162-6.163c0-3.403-2.759-6.162-6.162-6.162zm0 10.162c-2.209 0-4-1.79-4-4 0-2.209 1.791-4 4-4s4 1.791 4 4c0 2.21-1.791 4-4 4zm6.406-11.845c-.796 0-1.441.645-1.441 1.44s.645 1.44 1.441 1.44c.795 0 1.439-.645 1.439-1.44s-.644-1.44-1.439-1.44z"/>
  </symbol>
  
  <!-- YouTube Icon -->
  <symbol id="icon-youtube" viewBox="0 0 24 24">
    <path fill="currentColor" d="M23.498 6.186a3.016 3.016 0 0 0-2.122-2.136C19.505 3.545 12 3.545 12 3.545s-7.505 0-9.377.505A3.017 3.017 0 0 0 .502 6.186C0 8.07 0 12 0 12s0 3.93.502 5.814a3.016 3.016 0 0 0 2.122 2.136c1.871.505 9.376.505 9.376.505s7.505 0 9.377-.505a3.015 3.015 0 0 0 2.122-2.136C24 15.93 24 12 24 12s0-3.93-.502-5.814zM9.545 15.568V8.432L15.818 12l-6.273 3.568z"/>
  </symbol>
  
  <!-- Email Icon -->
  <symbol id="icon-email" viewBox="0 0 24 24">
    <path fill="currentColor" d="M20 4H4c-1.1 0-1.99.9-1.99 2L2 18c0 1.1.9 2 2 2h16c1.1 0 2-.9 2-2V6c0-1.1-.9-2-2-2zm0 4l-8 5-8-5V6l8 5 8-5v2z"/>
  </symbol>
  
  <!-- Arrow Down Icon -->
  <symbol id="icon-arrow-down" viewBox="0 0 24 24">
    <path fill="currentColor" d="M7.41 8.59L12 13.17l4.59-4.58L18 10l-6 6-6-6 1.41-1.41z"/>
  </symbol>
  
  <!-- Rocket Icon -->
  <symbol id="icon-rocket" viewBox="0 0 24 24">
    <path fill="currentColor" d="M12 2.5c-1.1 0-2.1.3-3 .8L4.3 11.9c-.1.1-.1.2-.1.4 0 .4.3.7.7.7h2.4l-1.5 6.2c-.1.4.1.8.4 1 .1.1.3.1.4.1.2 0 .4-.1.6-.2l7.4-5.9c.3-.2.4-.6.3-.9-.1-.3-.4-.6-.8-.6h-2.2l2.2-4.9c.1-.2.1-.5 0-.7-.1-.2-.3-.4-.5-.5L12 2.5zM12 4.8l.9.5-1.6 3.5c-.1.2-.1.5 0 .7.1.2.3.4.5.5l2.1 1h-1.7l-2.1 1.7L11.2 9 12 4.8z"/>
  </symbol>
</svg>
